<svg width="40" height="40" viewBox="0 0 40 40" fill="none" xmlns="http://www.w3.org/2000/svg">
<path d="M31.1833 12.0167C31.0284 11.8605 30.844 11.7365 30.6409 11.6519C30.4378 11.5672 30.22 11.5237 30 11.5237C29.78 11.5237 29.5621 11.5672 29.359 11.6519C29.1559 11.7365 28.9716 11.8605 28.8167 12.0167L16.4 24.45L11.1833 19.2167C11.0225 19.0613 10.8325 18.9391 10.6245 18.8571C10.4164 18.7751 10.1942 18.7349 9.97052 18.7387C9.74689 18.7426 9.52621 18.7905 9.32108 18.8796C9.11595 18.9688 8.93038 19.0975 8.77499 19.2583C8.61959 19.4192 8.4974 19.6091 8.41539 19.8172C8.33339 20.0253 8.29317 20.2475 8.29704 20.4711C8.30091 20.6948 8.34879 20.9155 8.43794 21.1206C8.5271 21.3257 8.65578 21.5113 8.81665 21.6667L15.2167 28.0667C15.3716 28.2229 15.5559 28.3469 15.759 28.4315C15.9621 28.5161 16.18 28.5597 16.4 28.5597C16.62 28.5597 16.8378 28.5161 17.0409 28.4315C17.244 28.3469 17.4284 28.2229 17.5833 28.0667L31.1833 14.4667C31.3525 14.3106 31.4875 14.1212 31.5799 13.9104C31.6722 13.6995 31.7199 13.4718 31.7199 13.2417C31.7199 13.0115 31.6722 12.7838 31.5799 12.573C31.4875 12.3622 31.3525 12.1727 31.1833 12.0167V12.0167Z" fill="white"/>
</svg>
