<svg width="38" height="38" viewBox="0 0 38 38" fill="none" xmlns="http://www.w3.org/2000/svg">
<g clip-path="url(#clip0_1428_79512)">
<path fill-rule="evenodd" clip-rule="evenodd" d="M1.03544 5.18709C0 7.21925 0 9.8795 0 15.2V22.8C0 28.1205 0 30.7808 1.03544 32.8129C1.94624 34.6004 3.39955 36.0538 5.18709 36.9646C7.21925 38 9.8795 38 15.2 38H22.8C28.1205 38 30.7808 38 32.8129 36.9646C34.6004 36.0538 36.0538 34.6004 36.9646 32.8129C38 30.7808 38 28.1205 38 22.8V15.2C38 9.8795 38 7.21925 36.9646 5.18709C36.0538 3.39955 34.6004 1.94624 32.8129 1.03544C30.7808 0 28.1205 0 22.8 0H15.2C9.8795 0 7.21925 0 5.18709 1.03544C3.39955 1.94624 1.94624 3.39955 1.03544 5.18709ZM20.8871 11.8865C18.6182 12.8302 14.0836 14.7835 7.2832 17.7463C6.17893 18.1854 5.60046 18.615 5.5478 19.0351C5.45881 19.745 6.34782 20.0246 7.55843 20.4052C7.7231 20.457 7.89372 20.5106 8.06864 20.5675C9.25968 20.9547 10.8619 21.4076 11.6948 21.4256C12.4503 21.4419 13.2935 21.1304 14.2245 20.4912C20.5783 16.2022 23.8581 14.0343 24.064 13.9876C24.2093 13.9546 24.4106 13.9132 24.547 14.0344C24.6834 14.1556 24.67 14.3852 24.6556 14.4468C24.5675 14.8223 21.0778 18.0666 19.2719 19.7456C18.7089 20.269 18.3095 20.6402 18.2279 20.725C18.045 20.915 17.8586 21.0946 17.6795 21.2673C16.573 22.334 15.7432 23.1339 17.7255 24.4402C18.6781 25.0679 19.4403 25.587 20.2008 26.1049C21.0313 26.6704 21.8596 27.2345 22.9313 27.9371C23.2044 28.1161 23.4651 28.302 23.7191 28.483C24.6856 29.1721 25.5539 29.7911 26.6267 29.6924C27.25 29.635 27.8939 29.0489 28.2209 27.3008C28.9937 23.1695 30.5127 14.2183 30.8637 10.5297C30.8945 10.2066 30.8558 9.79299 30.8247 9.61144C30.7937 9.42988 30.7287 9.1712 30.4927 8.97971C30.2132 8.75292 29.7818 8.7051 29.5888 8.7085C28.7114 8.72395 27.3653 9.19202 20.8871 11.8865Z" fill="black"/>
</g>
<defs>
<clipPath id="clip0_1428_79512">
<rect width="38" height="38" fill="white"/>
</clipPath>
</defs>
</svg>
