<svg width="38" height="38" viewBox="0 0 38 38" fill="none" xmlns="http://www.w3.org/2000/svg">
<g clip-path="url(#clip0_1427_79288)">
<path fill-rule="evenodd" clip-rule="evenodd" d="M19.407 29.9303H19.4116C25.617 29.9303 30.6674 24.8813 30.67 18.6754C30.6711 15.6681 29.5012 12.8403 27.3755 10.713C25.2499 8.58563 22.4232 7.41334 19.4161 7.41215C13.206 7.41215 8.15539 12.4608 8.15294 18.6663C8.15213 20.7929 8.74729 22.8641 9.87423 24.6561L10.142 25.0818L9.00461 29.235L13.2657 28.1176L13.6768 28.3615C15.4054 29.387 17.3868 29.9295 19.407 29.9303ZM23.2743 20.4002C23.5847 20.5131 25.2486 21.3317 25.5871 21.501C25.653 21.534 25.7147 21.5638 25.7719 21.5914C26.0082 21.7055 26.1677 21.7826 26.2358 21.8962C26.3204 22.0373 26.3204 22.7148 26.0384 23.5052C25.7563 24.2954 24.4041 25.0168 23.7539 25.114C23.1707 25.2011 22.4329 25.2374 21.6221 24.98C21.1305 24.8239 20.5001 24.6158 19.6926 24.2672C16.5205 22.8979 14.3766 19.8248 13.9705 19.2427C13.9419 19.2018 13.922 19.1731 13.9108 19.1583L13.9079 19.1544C13.7282 18.9146 12.5289 17.3143 12.5289 15.6582C12.5289 14.0996 13.2947 13.2826 13.6472 12.9066C13.6714 12.8809 13.6935 12.8572 13.7134 12.8355C14.0237 12.4969 14.3903 12.4122 14.616 12.4122C14.8416 12.4122 15.0675 12.4143 15.2647 12.4241C15.289 12.4253 15.3143 12.4251 15.3404 12.425C15.5376 12.4238 15.7836 12.4224 16.0261 13.0049C16.1193 13.2287 16.2556 13.5604 16.3994 13.9103C16.6908 14.6195 17.013 15.4037 17.0697 15.5171C17.1543 15.6864 17.2107 15.8841 17.0979 16.1098C17.081 16.1436 17.0654 16.1754 17.0505 16.2059C16.9657 16.3791 16.9034 16.5063 16.7594 16.6744C16.703 16.7402 16.6447 16.8112 16.5864 16.8822C16.4698 17.0241 16.3532 17.1661 16.2518 17.2671C16.0823 17.4358 15.9059 17.6189 16.1033 17.9576C16.3008 18.2963 16.9801 19.4044 17.9862 20.3015C19.068 21.2661 20.0081 21.6738 20.4845 21.8803C20.5774 21.9206 20.6527 21.9532 20.7079 21.9808C21.0464 22.1503 21.2438 22.122 21.4412 21.8962C21.6386 21.6704 22.2872 20.9083 22.5129 20.5696C22.7386 20.2308 22.9641 20.2873 23.2743 20.4002Z" fill="black"/>
<path fill-rule="evenodd" clip-rule="evenodd" d="M1.03544 5.18709C0 7.21925 0 9.8795 0 15.2V22.8C0 28.1205 0 30.7808 1.03544 32.8129C1.94624 34.6005 3.39955 36.0538 5.18709 36.9646C7.21925 38 9.8795 38 15.2 38H22.8C28.1205 38 30.7808 38 32.8129 36.9646C34.6005 36.0538 36.0538 34.6005 36.9646 32.8129C38 30.7808 38 28.1205 38 22.8V15.2C38 9.8795 38 7.21925 36.9646 5.18709C36.0538 3.39955 34.6005 1.94624 32.8129 1.03544C30.7808 0 28.1205 0 22.8 0H15.2C9.8795 0 7.21925 0 5.18709 1.03544C3.39955 1.94624 1.94624 3.39955 1.03544 5.18709ZM19.4115 5.12518C23.035 5.12666 26.436 6.53689 28.9933 9.0964C31.5509 11.6559 32.9584 15.058 32.957 18.6763C32.954 26.1424 26.877 32.2173 19.4116 32.2173H19.4061C17.139 32.2164 14.9115 31.6479 12.933 30.5691L5.75234 32.4521L7.67401 25.4351C6.48866 23.3817 5.865 21.052 5.86597 18.6654C5.86894 11.1993 11.9454 5.12518 19.4115 5.12518Z" fill="black"/>
</g>
<defs>
<clipPath id="clip0_1427_79288">
<rect width="38" height="38" fill="white"/>
</clipPath>
</defs>
</svg>
